<?xml version="1.0"?>
<svg xmlns:rdf="http://www.w3.org/1999/02/22-rdf-syntax-ns#" xmlns="http://www.w3.org/2000/svg" xmlns:cc="http://creativecommons.org/ns#" xmlns:dc="http://purl.org/dc/elements/1.1/" id="svg2" viewBox="0 0 150 150" version="1.1">
  <g id="layer1" transform="translate(0 -902.36)">
    <path id="path3017" fill-rule="evenodd" d="m80.444 988.84c-4.3279-4.3279-8.6557-8.6558-12.984-12.984-4.3355 8.6634-8.671 17.327-13.006 25.99 8.6633-4.3355 17.327-8.671 25.99-13.006zm6.9529 0.54512 20.456-40.911-40.911 20.456-20.456 40.911zm-15.534-65.559c-33.539 1.1165-59.499 40.305-46.152 71.406 9.3654 26.012 41.403 42.226 67.374 31.818 24.477-8.378 41.216-36.218 34.408-61.752-5.2645-24.298-28.876-43.488-54.07-41.502l-0.94171 0.0178-0.61828 0.0117zm71.9 52.998c0 37.626-30.502 68.129-68.129 68.129-37.626 0-68.129-30.502-68.129-68.129 0-37.626 30.502-68.129 68.129-68.129 37.626 0 68.129 30.502 68.129 68.129z"/>
  </g>
  <metadata>
    <rdf:RDF>
      <cc:Work>
        <dc:format>image/svg+xml</dc:format>
        <dc:type rdf:resource="http://purl.org/dc/dcmitype/StillImage"/>
        <cc:license rdf:resource="http://creativecommons.org/licenses/publicdomain/"/>
        <dc:publisher>
          <cc:Agent rdf:about="http://openclipart.org/">
            <dc:title>Openclipart</dc:title>
          </cc:Agent>
        </dc:publisher>
      </cc:Work>
      <cc:License rdf:about="http://creativecommons.org/licenses/publicdomain/">
        <cc:permits rdf:resource="http://creativecommons.org/ns#Reproduction"/>
        <cc:permits rdf:resource="http://creativecommons.org/ns#Distribution"/>
        <cc:permits rdf:resource="http://creativecommons.org/ns#DerivativeWorks"/>
      </cc:License>
    </rdf:RDF>
  </metadata>
</svg>
